<svg width="114" height="32" viewBox="0 0 114 32" fill="none" xmlns="http://www.w3.org/2000/svg"><path d="M53.008 24.613c.572 0 1.082-.095 1.529-.286a3.12 3.12 0 0 0 1.144-.803c.315-.345.554-.763.715-1.254a5.06 5.06 0 0 0 .253-1.65v-9.526h2.959v9.526a7.31 7.31 0 0 1-.462 2.629c-.3.8-.737 1.492-1.309 2.079a6.102 6.102 0 0 1-2.079 1.364c-.814.323-1.73.484-2.75.484s-1.936-.161-2.75-.484a6.102 6.102 0 0 1-2.079-1.364 6.148 6.148 0 0 1-1.309-2.079 7.469 7.469 0 0 1-.451-2.629v-9.526h2.959v9.515c0 .609.08 1.159.242 1.65.169.491.407.913.715 1.265.308.345.686.612 1.133.803.455.19.968.286 1.54.286zm13.42-5.797l-5.07-7.722h2.948c.205 0 .352.03.44.088a.68.68 0 0 1 .253.264l3.619 5.841a3.1 3.1 0 0 1 .12-.275 2.72 2.72 0 0 1 .155-.286l3.31-5.225c.162-.271.371-.407.628-.407h2.838l-5.126 7.601L75.812 27h-2.96a.736.736 0 0 1-.483-.154 1.512 1.512 0 0 1-.297-.352L68.387 20.4c-.03.088-.063.172-.1.253a5.613 5.613 0 0 1-.11.209l-3.53 5.632a1.87 1.87 0 0 1-.297.352.644.644 0 0 1-.44.154h-2.772l5.29-8.184zM77.544 27V11.094h5.49c1.04 0 1.928.099 2.662.297.74.198 1.345.48 1.815.847.476.367.825.81 1.044 1.331.22.52.33 1.107.33 1.76 0 .374-.055.733-.165 1.078-.11.337-.282.656-.516.957a3.773 3.773 0 0 1-.88.803 5.212 5.212 0 0 1-1.265.616c2.185.491 3.277 1.672 3.277 3.542 0 .675-.128 1.298-.384 1.87a4.176 4.176 0 0 1-1.122 1.485c-.492.41-1.097.733-1.816.968-.718.235-1.54.352-2.464.352h-6.006zm2.96-6.974v4.664h3.002c.55 0 1.009-.066 1.376-.198.373-.132.67-.308.89-.528.228-.22.39-.477.484-.77a2.8 2.8 0 0 0 .154-.935 2.44 2.44 0 0 0-.165-.924 1.695 1.695 0 0 0-.516-.704 2.37 2.37 0 0 0-.902-.451c-.367-.103-.81-.154-1.331-.154h-2.993zm0-2.046h2.365c1.004 0 1.767-.183 2.288-.55.52-.367.78-.95.78-1.749 0-.829-.234-1.419-.704-1.771-.469-.352-1.202-.528-2.2-.528h-2.53v4.598zm15.88-2.442c.712 0 1.365.114 1.959.341a4.255 4.255 0 0 1 1.55 1.001c.433.433.771.968 1.013 1.606.242.63.363 1.353.363 2.167 0 .205-.011.378-.033.517a.754.754 0 0 1-.099.319.414.414 0 0 1-.187.165.918.918 0 0 1-.308.044h-6.974c.08 1.159.392 2.01.935 2.552.542.543 1.26.814 2.156.814.44 0 .817-.051 1.133-.154.322-.103.6-.216.836-.341.242-.125.45-.238.627-.341.183-.103.359-.154.528-.154a.59.59 0 0 1 .286.066c.08.044.15.106.209.187l.792.99a4.657 4.657 0 0 1-1.012.891 6.032 6.032 0 0 1-1.177.572c-.404.14-.818.238-1.243.297a8.777 8.777 0 0 1-1.221.088 6.104 6.104 0 0 1-2.19-.385 4.997 4.997 0 0 1-1.76-1.155c-.498-.513-.89-1.144-1.176-1.892-.286-.755-.43-1.628-.43-2.618a6.2 6.2 0 0 1 .375-2.167 5.199 5.199 0 0 1 1.067-1.771 5.083 5.083 0 0 1 1.705-1.199c.674-.293 1.433-.44 2.277-.44zm.056 1.947c-.792 0-1.412.224-1.86.671-.447.447-.733 1.082-.857 1.903h5.104c0-.352-.048-.682-.143-.99a2.292 2.292 0 0 0-.44-.825 2.028 2.028 0 0 0-.748-.55 2.49 2.49 0 0 0-1.056-.209zm11.697-1.947c.711 0 1.364.114 1.958.341a4.26 4.26 0 0 1 1.551 1.001c.432.433.77.968 1.012 1.606.242.63.363 1.353.363 2.167 0 .205-.011.378-.033.517a.754.754 0 0 1-.099.319.414.414 0 0 1-.187.165.918.918 0 0 1-.308.044h-6.974c.08 1.159.392 2.01.935 2.552.542.543 1.261.814 2.156.814.44 0 .817-.051 1.133-.154.322-.103.601-.216.836-.341.242-.125.451-.238.627-.341a1.08 1.08 0 0 1 .528-.154.59.59 0 0 1 .286.066c.08.044.15.106.209.187l.792.99a4.657 4.657 0 0 1-1.012.891 6.034 6.034 0 0 1-1.177.572c-.404.14-.818.238-1.243.297a8.777 8.777 0 0 1-1.221.088 6.101 6.101 0 0 1-2.189-.385 4.99 4.99 0 0 1-1.76-1.155c-.499-.513-.891-1.144-1.177-1.892-.286-.755-.429-1.628-.429-2.618 0-.77.124-1.492.374-2.167a5.194 5.194 0 0 1 1.067-1.771 5.074 5.074 0 0 1 1.705-1.199c.674-.293 1.433-.44 2.277-.44zm.055 1.947c-.792 0-1.412.224-1.859.671-.448.447-.734 1.082-.858 1.903h5.104c0-.352-.048-.682-.143-.99a2.301 2.301 0 0 0-.44-.825 2.033 2.033 0 0 0-.748-.55 2.492 2.492 0 0 0-1.056-.209z" fill="#000"/><path d="M16.716 2.007a2.017 2.017 0 0 1-2.027 2.006 2.017 2.017 0 0 1-2.028-2.006C12.661.898 13.57 0 14.69 0s2.027.898 2.027 2.007zm10.658 1.992A1.51 1.51 0 0 1 25.857 5.5 1.51 1.51 0 0 1 24.34 4c0-.83.68-1.502 1.517-1.502A1.51 1.51 0 0 1 27.374 4z" fill="#212121"/><path d="M14.69 2.398h.624l1.637 4.793-2.066.41-.713-5.203h.517zM25 4.653L23.593 7.6l1.146.48L26.24 4.4 25 4.653z" fill="#212121"/><path fill-rule="evenodd" clip-rule="evenodd" d="M31.639 15.085c1.703 6.787-2.706 14.21-12.18 16.355-8.698 1.969-17.421-1.405-19.17-8.113C-1.462 16.62 4.973 8.737 13.483 6.5c8.081-2.125 16.142.564 18.155 8.585zm-24.195-.743c.202.024.38.11.502.196.192.135.324.332.51.608.084.126.18.268.296.429l.086.117c1.037 1.422 2.686 3.682 5.99 5.512 3.644 2.018 7.84 2.364 10.15 2.117.64-.069 1.2-.182 1.66-.276.29-.06.542-.11.751-.137.384-.05.55-.042.677.191.094.173.04.338-.096.613-.55 1.113-2.72 3.224-7.558 4.406-5.719 1.397-11.666-.4-14.402-3.367-1.49-1.616-2.065-2.99-2.133-4.535-.041-.922.088-1.84.416-2.65.228-.565.489-1.04.815-1.49.329-.453.614-.74.936-1.056.289-.284.6-.493.83-.59a.995.995 0 0 1 .57-.088zm12.642 3.21c2.991 2.961 6.987 3.6 8.924 1.682 1.938-1.917 1.113-5.665-1.878-8.626-2.992-2.96-7.254-3.498-8.955-1.889-1.685 1.593-1.083 5.873 1.909 8.833z" fill="#212121"/><path d="M26.528 15.934c-.795.797-2.447.543-3.69-.673-1.242-1.215-1.5-2.98-.809-3.643.699-.668 2.46-.456 3.702.76 1.243 1.214 1.593 2.76.797 3.556z" fill="#212121"/></svg>