<svg width="92" height="92" viewBox="0 0 92 92" fill="none" xmlns="http://www.w3.org/2000/svg"><path fill-rule="evenodd" clip-rule="evenodd" d="M55 46a9 9 0 0 1-17.064 4H32.58C34.3 55.783 39.658 60 46 60c7.732 0 14-6.268 14-14s-6.268-14-14-14c-6.342 0-11.7 4.217-13.42 10h5.356A9 9 0 0 1 55 46z" fill="#000"/><path fill="#000" d="M44 71h5v18h-5zm0-68h5v18h-5z"/><path fill-rule="evenodd" clip-rule="evenodd" d="M44 22.082c.66-.054 1.327-.082 2-.082 13.255 0 24 10.745 24 24 0 5.599-1.917 10.75-5.131 14.833l-9.838-9.837-3.535 3.535 12.732 12.732.002-.002.705.705C71.1 62.648 75 54.779 75 46c0-16.016-12.984-29-29-29-.672 0-1.34.023-2 .068v4.99l.01.016-.01.005v.003zM17 46c0-9.993 5.054-18.805 12.745-24.02l2.508 4.344C26.054 30.664 22 37.858 22 46c0 13.255 10.745 24 24 24 1.016 0 2.017-.063 3-.186v5.033c-.986.1-1.987.153-3 .153-16.016 0-29-12.984-29-29zm41 26.344v.064l.044-.02-.044-.044z" fill="#000"/><path fill-rule="evenodd" clip-rule="evenodd" d="M46 2a43.799 43.799 0 0 1 25.348 8.03l-3.595 3.595A38.819 38.819 0 0 0 46 7C24.46 7 7 24.46 7 46a38.819 38.819 0 0 0 6.627 21.756l-3.594 3.595A43.799 43.799 0 0 1 2 46C2 21.7 21.7 2 46 2zM20.637 81.959A43.799 43.799 0 0 0 46 90c24.3 0 44-19.7 44-44a43.8 43.8 0 0 0-8.051-25.377l-3.595 3.594A38.819 38.819 0 0 1 85 46c0 21.54-17.46 39-39 39a38.819 38.819 0 0 1-21.769-6.636l-3.595 3.594z" fill="#000"/><circle cx="6.5" cy="85.5" r="6.5" fill="#000"/><path fill="#000" d="M16.713 71.752l3.535 3.536L8.17 87.366 4.635 83.83zM86.351 2.113l3.536 3.535-14.593 14.594-3.536-3.536z"/><path d="M77 2.5A2.5 2.5 0 0 1 79.5 0H92v5H79.5A2.5 2.5 0 0 1 77 2.5z" fill="#000"/><path d="M92 0v12.5a2.5 2.5 0 0 1-5 0V0h5z" fill="#000"/></svg>