<svg width="97" height="94" viewBox="0 0 97 94" fill="none" xmlns="http://www.w3.org/2000/svg"><path d="M10.534 3.007H6.767A3.767 3.767 0 0 0 3 6.775v3.767m67.808-7.535h3.767a3.767 3.767 0 0 1 3.767 3.768v3.767M21.835 3H35.02m11.302 0h13.185M10.534 78.35H6.767A3.767 3.767 0 0 1 3 74.583v-3.767M23 78h9M3 21.836V35.02m0 11.302v13.185m75.342-37.671V35.02m0 11.302v3.767m-27.739 9.877h-3.767a3.767 3.767 0 0 0-3.767 3.767V67.5m43.397-7.534h3.767A3.767 3.767 0 0 1 94 63.734V67.5m-32.096-7.541h13.185M50.603 90.103h-3.767a3.767 3.767 0 0 1-3.768-3.767V82.57m43.398 7.533h3.767A3.767 3.767 0 0 0 94 86.336V82.57m-32.096 7.526h13.185" stroke="#000" stroke-width="5" stroke-linecap="round" stroke-linejoin="round"/></svg>