<svg width="101" height="92" viewBox="0 0 101 92" fill="none" xmlns="http://www.w3.org/2000/svg"><path fill-rule="evenodd" clip-rule="evenodd" d="M28 22.551H9a8.5 8.5 0 0 0-8.5 8.5V83A8.5 8.5 0 0 0 9 91.5h48a8.5 8.5 0 0 0 8.5-8.5v-4h-5v4a3.5 3.5 0 0 1-3.5 3.5H9A3.5 3.5 0 0 1 5.5 83V31.051a3.5 3.5 0 0 1 3.5-3.5h19v-5zM28 44.5h-9a2.5 2.5 0 0 0 0 5h9v-5zm0 11h-9a2.5 2.5 0 0 0 0 5h9v-5zm0 11h-9a2.5 2.5 0 0 0 0 5h9v-5z" fill="#000"/><path clip-rule="evenodd" d="M38 9a6 6 0 0 1 6-6h48a6 6 0 0 1 6 6v54a6 6 0 0 1-6 6H44a6 6 0 0 1-6-6V9z" stroke="#000" stroke-width="5" stroke-linecap="round" stroke-linejoin="round"/><path d="M57 19h22M57 30h22M57 41h22M57 52h22" stroke="#000" stroke-width="5" stroke-linecap="round" stroke-linejoin="round"/></svg>