<svg width="104" height="93" viewBox="0 0 104 93" fill="none" xmlns="http://www.w3.org/2000/svg"><path fill="#000" d="M4.5 18.5h84v5h-84z"/><path fill-rule="evenodd" clip-rule="evenodd" d="M8.502 0a8.684 8.684 0 0 0-8.5 8.888v63.223A8.68 8.68 0 0 0 8.503 81H48v-5H8.543a3.68 3.68 0 0 1-3.54-3.856V8.856l-.001-.07A3.684 3.684 0 0 1 8.544 5h75.912a3.684 3.684 0 0 1 3.541 3.856V39h5V8.888A8.684 8.684 0 0 0 84.497 0H8.503z" fill="#000"/><path clip-rule="evenodd" d="M81.987 70.996l17.267-4.317a2.083 2.083 0 0 0 .258-3.962l-38.108-15A2.083 2.083 0 0 0 58.7 50.42l15 38.104a2.083 2.083 0 0 0 3.958-.258l4.33-17.27z" stroke="#000" stroke-width="5" stroke-linecap="round" stroke-linejoin="round"/><circle cx="16" cy="12" r="3.5" fill="#000"/><circle cx="27" cy="12" r="3.5" fill="#000"/><circle cx="38" cy="12" r="3.5" fill="#000"/></svg>