<svg width="93" height="93" viewBox="0 0 93 93" fill="none" xmlns="http://www.w3.org/2000/svg"><path d="M46.5 18.818v51.41" stroke="#000" stroke-width="5" stroke-linecap="round" stroke-linejoin="round"/><path clip-rule="evenodd" d="M18.13 4a1 1 0 0 1 1-1h54.74a1 1 0 0 1 1 1v13.818a1 1 0 0 1-1 1H19.13a1 1 0 0 1-1-1V4zm18.914 67.227a1 1 0 0 1 1-1h16.913a1 1 0 0 1 1 1V89a1 1 0 0 1-1 1H38.043a1 1 0 0 1-1-1V71.227zM3 71.227a1 1 0 0 1 1-1h16.913a1 1 0 0 1 1 1V89a1 1 0 0 1-1 1H4a1 1 0 0 1-1-1V71.227zm68.087 0a1 1 0 0 1 1-1H89a1 1 0 0 1 1 1V89a1 1 0 0 1-1 1H72.087a1 1 0 0 1-1-1V71.227z" stroke="#000" stroke-width="5" stroke-linecap="round" stroke-linejoin="round"/><path d="M78.652 70.23V50.459c0-2.184-1.694-3.954-3.783-3.954H18.13c-2.089 0-3.782 1.77-3.782 3.954v19.773" stroke="#000" stroke-width="5" stroke-linecap="round" stroke-linejoin="round"/></svg>