<svg width="102" height="95" viewBox="0 0 102 95" fill="none" xmlns="http://www.w3.org/2000/svg"><path fill-rule="evenodd" clip-rule="evenodd" d="M61.353 46c6.595 0 11.941-5.346 11.941-11.941 0-6.595-5.346-11.941-11.941-11.941-6.595 0-11.941 5.346-11.941 11.94 0 1.39.237 2.725.674 3.966a10.27 10.27 0 0 1-3.489 4.364 16.864 16.864 0 0 1-2.185-8.33c0-9.355 7.585-16.94 16.941-16.94 9.356 0 16.941 7.585 16.941 16.94C78.294 43.416 70.71 51 61.353 51c-3.193 0-6.18-.883-8.729-2.419a18.93 18.93 0 0 0 3.489-3.79A11.892 11.892 0 0 0 61.353 46zm-6.961-2.238a12.006 12.006 0 0 1-3.22-3.46 12.298 12.298 0 0 1-3.488 3.767 17.039 17.039 0 0 0 3.22 3.326 16.92 16.92 0 0 0 3.488-3.633z" fill="#000"/><path fill-rule="evenodd" clip-rule="evenodd" d="M40.647 17.118c3.193 0 6.18.883 8.729 2.419a18.927 18.927 0 0 0-3.489 3.789 11.892 11.892 0 0 0-5.24-1.208c-6.595 0-11.941 5.346-11.941 11.94C28.706 40.655 34.052 46 40.647 46c6.595 0 11.941-5.346 11.941-11.941 0-1.39-.237-2.725-.674-3.965a10.271 10.271 0 0 1 3.489-4.364 16.864 16.864 0 0 1 2.185 8.329C57.588 43.415 50.003 51 40.647 51c-9.356 0-16.941-7.585-16.941-16.941 0-9.356 7.585-16.941 16.941-16.941zm13.669 6.93a17.04 17.04 0 0 0-3.22-3.325 16.92 16.92 0 0 0-3.488 3.633 12.004 12.004 0 0 1 3.22 3.46 12.297 12.297 0 0 1 3.488-3.767z" fill="#000"/><path clip-rule="evenodd" d="M98.997 74.607a6.741 6.741 0 0 1-6.545 6.934H9.548a6.74 6.74 0 0 1-6.545-6.934V9.933A6.746 6.746 0 0 1 9.548 3h82.904a6.746 6.746 0 0 1 6.545 6.933v64.674z" stroke="#000" stroke-width="5" stroke-linecap="round" stroke-linejoin="round"/><path d="M22.638 90.268h56.724M51 81.54v8.728M3.003 64.087h95.995M51 71.723a1.09 1.09 0 1 1 0 2.182 1.09 1.09 0 0 1 0-2.182" stroke="#000" stroke-width="5" stroke-linecap="round" stroke-linejoin="round"/></svg>